<svg xmlns="http://www.w3.org/2000/svg" aria-hidden="true" style="position:absolute;width:0;height:0;overflow:hidden">
  <defs>
    <symbol id="icon-facebook" viewBox="0 0 32 32">
      <path stroke-linecap="round" stroke-linejoin="round" stroke-width="2" d="M24 2.667h-4a6.667 6.667 0 0 0-6.667 6.667v4h-4v5.333h4v10.667h5.333V18.667h4l1.333-5.333h-5.333v-4c0-.736.597-1.333 1.333-1.333v0h4V2.668z" />
    </symbol>
    <symbol id="icon-instagram" viewBox="0 0 32 32">
      <path stroke-linecap="round" stroke-linejoin="round" stroke-width="2" d="M22.667 2.667H9.334a6.667 6.667 0 0 0-6.667 6.667v13.333a6.667 6.667 0 0 0 6.667 6.667v0h13.333a6.667 6.667 0 0 0 6.667-6.667v0V9.334a6.667 6.667 0 0 0-6.667-6.667v0z" />
      <path stroke-linecap="round" stroke-linejoin="round" stroke-width="2" d="M21.333 15.16a5.333 5.333 0 1 1-10.547 1.593l-.003-.028a5.333 5.333 0 0 1 10.547-1.596l.004.031zm2-6.493h.016"/>
    </symbol>
    <symbol id="icon-twitter" viewBox="0 0 32 32">
      <path stroke-linecap="round" stroke-linejoin="round" stroke-width="2" d="M30.667 4a14.37 14.37 0 0 1-4.084 2.013l-.103.027a5.973 5.973 0 0 0-10.479 4.004v-.004 1.333a14.197 14.197 0 0 1-11.97-5.996l-.03-.044s-5.333 12 6.667 17.333a15.387 15.387 0 0 1-9.364 2.666l.031.001c12 6.667 26.667 0 26.667-15.333 0-.372-.037-.741-.107-1.107a10.277 10.277 0 0 0 2.758-4.822L30.668 4z" />
    </symbol>
    <symbol id="btn-next-slide" viewBox="0 0 32 32">
      <path stroke-linecap="round" stroke-linejoin="round" stroke-width="1.778" d="M12.444 22.222 18.666 16l-6.222-6.222"/>
    </symbol>
    <symbol id="btn-prev-slide" viewBox="0 0 32 32">
      <path stroke-linecap="round" stroke-linejoin="round" stroke-width="1.778" d="M19.556 22.222 13.334 16l6.222-6.222"/>
    </symbol>
    <symbol id="icon-button_left" viewBox="0 0 32 32">
      <path stroke-linecap="round" stroke-linejoin="round" stroke-width="1.778" d="M19.556 22.222 13.334 16l6.222-6.222"/>
    </symbol>
    <symbol id="icon-button_right-" viewBox="0 0 32 32">
      <path stroke-linecap="round" stroke-linejoin="round" stroke-width="1.778" d="M12.444 22.222 18.666 16l-6.222-6.222"/>
    </symbol>
    <symbol id="icon-modal-close" viewBox="0 0 32 32">
      <path stroke-linecap="round" stroke-linejoin="round" stroke-width="1.8" d="M22.667 9.333 9.334 22.666M9.333 9.333l13.333 13.333"/>
    </symbol>
    <symbol id="icon-icon-menu-cl" viewBox="0 0 32 32">
      <path stroke-linecap="round" stroke-linejoin="round" stroke-width="4" d="M30 2 2 30M2 2l28 28" />
    </symbol>

<symbol id="icon-burger" viewBox="0 0 32 32">
        <path stroke-linejoin="round" stroke-linecap="round" stroke-miterlimit="4" stroke-width="2" d="M4 16h24M4 8h24M4 24h16"></path>
        </symbol>
        <symbol id="icon-button-l" viewBox="0 0 32 32">
        <path stroke-linejoin="round" stroke-linecap="round" stroke-miterlimit="4" stroke-width="1.7778" d="M19.556 22.222l-6.222-6.222 6.222-6.222"></path>
        </symbol>
        <symbol id="icon-button-r" viewBox="0 0 32 32">
        <path stroke-linejoin="round" stroke-linecap="round" stroke-miterlimit="4" stroke-width="1.7778" d="M12.444 22.222l6.222-6.222-6.222-6.222"></path>
        </symbol>
        <symbol id="icon-down" viewBox="0 0 32 32">
        <path stroke-linejoin="round" stroke-linecap="round" stroke-miterlimit="4" stroke-width="2.88" d="M8 12l8 8 8-8"></path>
        </symbol>   
  </defs>
</svg>