<svg width="36" height="36" fill="none" xmlns="http://www.w3.org/2000/svg"><path d="M13.65 10.03c-.19.105-.512.425-.605.602-.114.217-.108.587.013.77.054.081 1.546 1.599 3.315 3.373L19.59 18l-3.217 3.225c-1.769 1.774-3.261 3.292-3.315 3.373-.113.171-.129.55-.031.741.099.193.419.519.605.616.21.11.491.108.73-.005.104-.05 1.854-1.757 3.889-3.795 3.066-3.071 3.709-3.743 3.759-3.93.133-.497.228-.386-3.67-4.296-1.985-1.992-3.715-3.7-3.844-3.795-.251-.187-.615-.232-.846-.104" fill-rule="evenodd" fill="#000"/></svg>