
<svg aria-hidden="true" style="position: absolute; width: 0; height: 0; overflow: hidden;" version="1.1" xmlns="http://www.w3.org/2000/svg" xmlns:xlink="http://www.w3.org/1999/xlink">
    <defs>

        <symbol id="icon-facebook" viewBox="0 0 32 32">
        <path fill="none" stroke="#f7f7f7" style="stroke: var(--color1, #f7f7f7)" stroke-linejoin="round" stroke-linecap="round" stroke-miterlimit="4" stroke-width="2" d="M24 2.667h-4c-3.682 0-6.667 2.985-6.667 6.667v0 4h-4v5.333h4v10.667h5.333v-10.667h4l1.333-5.333h-5.333v-4c0-0.736 0.597-1.333 1.333-1.333v0h4v-5.333z"></path>
        </symbol>
        <symbol id="icon-instagram" viewBox="0 0 32 32">
        <path fill="none" stroke="#f7f7f7" style="stroke: var(--color1, #f7f7f7)" stroke-linejoin="round" stroke-linecap="round" stroke-miterlimit="4" stroke-width="2" d="M22.667 2.667h-13.333c-3.682 0-6.667 2.985-6.667 6.667v0 13.333c0 3.682 2.985 6.667 6.667 6.667v0h13.333c3.682 0 6.667-2.985 6.667-6.667v0-13.333c0-3.682-2.985-6.667-6.667-6.667v0z"></path>
        <path fill="none" stroke="#f7f7f7" style="stroke: var(--color1, #f7f7f7)" stroke-linejoin="round" stroke-linecap="round" stroke-miterlimit="4" stroke-width="2" d="M21.333 15.16c0.042 0.251 0.066 0.54 0.066 0.834 0 2.946-2.388 5.333-5.333 5.333-2.688 0-4.911-1.988-5.28-4.574l-0.003-0.028c-0.032-0.22-0.050-0.473-0.050-0.731 0-2.946 2.388-5.333 5.333-5.333 2.651 0 4.85 1.934 5.264 4.468l0.004 0.031zM23.333 8.667h0.016"></path>
        </symbol>
        <symbol id="icon-twitter" viewBox="0 0 32 32">
        <path fill="none" stroke="#f7f7f7" style="stroke: var(--color1, #f7f7f7)" stroke-linejoin="round" stroke-linecap="round" stroke-miterlimit="4" stroke-width="2" d="M30.667 4c-1.2 0.856-2.591 1.552-4.084 2.013l-0.103 0.027c-1.101-1.261-2.712-2.053-4.507-2.053-3.299 0-5.973 2.674-5.973 5.973 0 0.028 0 0.056 0.001 0.084l-0-0.004v1.333c-0.11 0.003-0.239 0.005-0.368 0.005-4.79 0-9.027-2.37-11.602-6.001l-0.030-0.044s-5.333 12 6.667 17.333c-2.442 1.677-5.462 2.679-8.716 2.679-0.217 0-0.433-0.004-0.648-0.013l0.031 0.001c12 6.667 26.667 0 26.667-15.333 0-0.372-0.037-0.741-0.107-1.107 1.323-1.305 2.293-2.963 2.758-4.822l0.015-0.071z"></path>
        </symbol>
        <symbol id="btn-next-slide" viewBox="0 0 32 32">
        <path stroke-linejoin="round" stroke-linecap="round" stroke-miterlimit="4" stroke-width="1.7778" d="M12.444 22.222l6.222-6.222-6.222-6.222"></path>
        </symbol>
        <symbol id="btn-prev-slide" viewBox="0 0 32 32">
        <path stroke-linejoin="round" stroke-linecap="round" stroke-miterlimit="4" stroke-width="1.7778" d="M19.556 22.222l-6.222-6.222 6.222-6.222"></path>
        </symbol>



        <symbol id="icon-button_left" viewBox="0 0 32 32">
        <path stroke-linecap="round" stroke-linejoin="round" stroke-width="1.778" d="M19.556 22.222 13.334 16l6.222-6.222"/>
        </symbol>
        <symbol id="icon-button_right-" viewBox="0 0 32 32">
        <path stroke-linecap="round" stroke-linejoin="round" stroke-width="1.778" d="M12.444 22.222 18.666 16l-6.222-6.222"/>
        </symbol>
        <symbol id="icon-modal-close" viewBox="0 0 32 32">
        <path stroke-linecap="round" stroke-linejoin="round" stroke-width="1.8" d="M22.667 9.333 9.334 22.666M9.333 9.333l13.333 13.333"/>
        </symbol>    
                
        <symbol id="icon-burger" viewBox="0 0 32 32">
        <path stroke-linejoin="round" stroke-linecap="round" stroke-miterlimit="4" stroke-width="2" d="M4 16h24M4 8h24M4 24h16"></path>
        </symbol>
        <symbol id="icon-button-l" viewBox="0 0 32 32">
        <path stroke-linejoin="round" stroke-linecap="round" stroke-miterlimit="4" stroke-width="1.7778" d="M19.556 22.222l-6.222-6.222 6.222-6.222"></path>
        </symbol>
        <symbol id="icon-button-r" viewBox="0 0 32 32">
        <path stroke-linejoin="round" stroke-linecap="round" stroke-miterlimit="4" stroke-width="1.7778" d="M12.444 22.222l6.222-6.222-6.222-6.222"></path>
        </symbol>
        <symbol id="icon-down" viewBox="0 0 32 32">
        <path stroke-linejoin="round" stroke-linecap="round" stroke-miterlimit="4" stroke-width="2.88" d="M8 12l8 8 8-8"></path>
        </symbol>   

    </defs>
</svg>